<?xml version="1.0" encoding="UTF-8"?>
<svg width="92px" height="92px" viewBox="0 0 92 92" version="1.1" xmlns="http://www.w3.org/2000/svg" xmlns:xlink="http://www.w3.org/1999/xlink">
    <!-- Generator: Sketch 61.2 (89653) - https://sketch.com -->
    <title>Group 15</title>
    <desc>Created with Sketch.</desc>
    <g id="Page-1" stroke="none" stroke-width="1" fill="none" fill-rule="evenodd">
        <g id="Group-15" transform="translate(1.000000, 1.000000)">
            <rect id="Rectangle" stroke="#000000" fill="#000000" stroke-linecap="square" x="0" y="0" width="90" height="90"></rect>
            <line x1="22.5" y1="23.3098592" x2="22.5" y2="66.6901408" id="Line-4" stroke="#FFFFFF" stroke-width="3" fill="#FFFFFF" stroke-linecap="square"></line>
            <line x1="22.5434783" y1="45.5" x2="46.4565217" y2="45.5" id="Line-4" stroke="#FFFFFF" stroke-width="3" fill="#FFFFFF" stroke-linecap="square"></line>
            <line x1="67.452381" y1="56.7" x2="45.547619" y2="45.3" id="Line-4" stroke="#FFFFFF" stroke-width="3" fill="#FFFFFF" stroke-linecap="square"></line>
            <line x1="67.452381" y1="57.2941176" x2="45.547619" y2="66.7058824" id="Line-4" stroke="#FFFFFF" stroke-width="3" fill="#FFFFFF" stroke-linecap="square"></line>
            <line x1="22.5434783" y1="67.25" x2="46.4565217" y2="67.25" id="Line-4" stroke="#FFFFFF" stroke-width="3" fill="#FFFFFF" stroke-linecap="square"></line>
            <line x1="22.5434783" y1="23.5" x2="46.4565217" y2="23.5" id="Line-4" stroke="#FFFFFF" stroke-width="3" fill="#FFFFFF" stroke-linecap="square"></line>
            <line x1="67.452381" y1="35.675" x2="45.547619" y2="23.325" id="Line-4" stroke="#FFFFFF" stroke-width="3" fill="#FFFFFF" stroke-linecap="square"></line>
            <line x1="67.452381" y1="35.3235294" x2="45.547619" y2="45.6764706" id="Line-4" stroke="#FFFFFF" stroke-width="3" fill="#FFFFFF" stroke-linecap="square"></line>
            <line x1="22.5434783" y1="45.5" x2="46.4565217" y2="45.5" id="Line-4" stroke="#FFFFFF" stroke-width="3" fill="#FFFFFF" stroke-linecap="square"></line>
            <ellipse id="Oval" stroke="#FFFFFF" fill="#FFFFFF" cx="23" cy="24" rx="3" ry="2"></ellipse>
            <ellipse id="Oval" stroke="#FFFFFF" fill="#FFFFFF" cx="46.5" cy="24" rx="3.5" ry="2"></ellipse>
            <ellipse id="Oval" stroke="#FFFFFF" fill="#FFFFFF" cx="68" cy="36" rx="3" ry="2"></ellipse>
            <ellipse id="Oval" stroke="#FFFFFF" fill="#FFFFFF" cx="46.5" cy="45.5" rx="3.5" ry="1.5"></ellipse>
            <ellipse id="Oval" stroke="#FFFFFF" fill="#FFFFFF" cx="23" cy="45.5" rx="3" ry="1.5"></ellipse>
            <ellipse id="Oval" stroke="#FFFFFF" fill="#FFFFFF" cx="23" cy="67" rx="3" ry="2"></ellipse>
            <ellipse id="Oval" stroke="#FFFFFF" fill="#FFFFFF" cx="45.5" cy="67" rx="3.5" ry="2"></ellipse>
            <ellipse id="Oval" stroke="#FFFFFF" fill="#FFFFFF" cx="68" cy="57" rx="3" ry="2"></ellipse>
        </g>
    </g>
</svg>