<?xml version="1.0" encoding="UTF-8"?>
<svg width="16px" height="14px" viewBox="0 0 16 14" version="1.1" xmlns="http://www.w3.org/2000/svg" xmlns:xlink="http://www.w3.org/1999/xlink">
    <!-- Generator: Sketch 52.2 (67145) - http://www.bohemiancoding.com/sketch -->
    <title>paper-plane</title>
    <desc>Created with Sketch.</desc>
    <g id="Web" stroke="none" stroke-width="1" fill="none" fill-rule="evenodd">
        <g id="Contact-us" transform="translate(-754.000000, -744.000000)" fill="#FFFFFF" fill-rule="nonzero">
            <g id="Group-7" transform="translate(160.000000, 400.000000)">
                <g id="Group-3" transform="translate(594.000000, 343.000000)">
                    <g id="paper-plane" transform="translate(0.000000, 1.000000)">
                        <path d="M0.00135134031,6.96745751 C-0.0174376108,6.6512706 0.161057424,6.36325875 0.452286166,6.23177509 L14.8258337,0.383882468 C14.9573564,0.330662889 15.1045365,0.352576833 15.2141387,0.443363175 C15.3206094,0.531018953 15.3738448,0.675024874 15.3456614,0.812769668 L13.006437,12.7308249 C12.9312812,13.081448 12.624395,13.3318931 12.2705364,13.3318931 C12.1170933,13.3318931 11.9699132,13.2849347 11.8446535,13.1972789 L9.02631083,11.2469378 L7.03781351,13.447724 C6.96265771,13.5322492 6.85931848,13.5760771 6.74971626,13.5760771 C6.70900687,13.5760771 6.66516598,13.5698159 6.62445659,13.5541631 C6.47727647,13.5040741 6.37393724,13.3694599 6.36454277,13.2160623 L6.15786431,9.34042464 L0.533704954,7.64052866 C0.229950245,7.54974232 0.0201402914,7.28364442 0.00135134031,6.96745751 Z M7.07852291,12.2549793 L8.39061799,10.8055284 L6.95013174,9.81000917 L7.07852291,12.2549793 Z M12.2580104,12.5523828 L14.3216635,2.04621169 L7.12862678,9.00232378 L12.2580104,12.5523828 Z M13.5325276,1.73941646 L0.803013252,6.92049906 L6.42090962,8.61726447 L13.5325276,1.73941646 Z" id="Shape"></path>
                    </g>
                </g>
            </g>
        </g>
    </g>
</svg>